<svg xmlns="http://www.w3.org/2000/svg" viewBox="0 0 450 500">
<defs>
<linearGradient id="uBody" x1="0%" y1="0%" x2="0%" y2="100%">
<stop offset="0%" style="stop-color:#FFFFFF" />
<stop offset="50%" style="stop-color:#FFF5F7" />
<stop offset="100%" style="stop-color:#FFE4E8" />
</linearGradient>
<linearGradient id="mane" x1="0%" y1="0%" x2="100%" y2="100%">
<stop offset="0%" style="stop-color:#FF69B4" />
<stop offset="25%" style="stop-color:#FF1493" />
<stop offset="50%" style="stop-color:#DDA0DD" />
<stop offset="75%" style="stop-color:#87CEEB" />
<stop offset="100%" style="stop-color:#98FB98" />
</linearGradient>
<linearGradient id="horn" x1="0%" y1="0%" x2="0%" y2="100%">
<stop offset="0%" style="stop-color:#FFD700" />
<stop offset="25%" style="stop-color:#FFF8DC" />
<stop offset="50%" style="stop-color:#FFD700" />
<stop offset="75%" style="stop-color:#FFA500" />
<stop offset="100%" style="stop-color:#FFD700" />
</linearGradient>
<radialGradient id="hornGlow">
<stop offset="0%" style="stop-color:#FFD700;stop-opacity:0.8" />
<stop offset="100%" style="stop-color:#FFD700;stop-opacity:0" />
</radialGradient>
<filter id="uShadow">
<feGaussianBlur in="SourceAlpha" stdDeviation="3"/>
<feOffset dx="2" dy="3"/>
<feFlood flood-color="#000" flood-opacity="0.3"/>
<feComposite in2="offsetblur" operator="in"/>
<feMerge>
<feMergeNode/>
<feMergeNode in="SourceGraphic"/>
</feMerge>
</filter>
</defs>
<!-- Shadow -->
<ellipse cx="250" cy="475" rx="90" ry="18" fill="#000" opacity="0.2"/>
<!-- Body -->
<ellipse cx="240" cy="350" rx="75" ry="60" fill="url(#uBody)" stroke="#FFB6C1" stroke-width="2.5" filter="url(#uShadow)"/>
<!-- Body shading -->
<ellipse cx="235" cy="350" rx="50" ry="40" fill="#FFF" opacity="0.6"/>
<path d="M 200 330 Q 210 350 200 370" stroke="#FFD4E0" stroke-width="1" fill="none" opacity="0.5"/>
<path d="M 280 330 Q 270 350 280 370" stroke="#FFD4E0" stroke-width="1" fill="none" opacity="0.5"/>
<!-- Legs -->
<path d="M 200 380 L 195 450 L 193 465 Q 193 468 196 468 L 204 468 Q 207 468 207 465 L 210 450 L 215 380 Z" fill="url(#uBody)" stroke="#FFB6C1" stroke-width="2" filter="url(#uShadow)"/>
<path d="M 265 380 L 260 450 L 258 465 Q 258 468 261 468 L 269 468 Q 272 468 272 465 L 275 450 L 280 380 Z" fill="url(#uBody)" stroke="#FFB6C1" stroke-width="2" filter="url(#uShadow)"/>
<!-- Hooves -->
<ellipse cx="200" cy="467" rx="8" ry="4" fill="#FFD700" stroke="#FFA500" stroke-width="1.5"/>
<ellipse cx="265" cy="467" rx="8" ry="4" fill="#FFD700" stroke="#FFA500" stroke-width="1.5"/>
<!-- Leg details -->
<line x1="200" y1="390" x2="200" y2="450" stroke="#FFD4E0" stroke-width="0.5" opacity="0.4"/>
<line x1="265" y1="390" x2="265" y2="450" stroke="#FFD4E0" stroke-width="0.5" opacity="0.4"/>
<!-- Chest/Neck area -->
<ellipse cx="290" cy="290" rx="35" ry="55" fill="url(#uBody)" stroke="#FFB6C1" stroke-width="2.5" transform="rotate(15 290 290)" filter="url(#uShadow)"/>
<ellipse cx="285" cy="285" rx="25" ry="40" fill="#FFF" opacity="0.5" transform="rotate(15 285 285)"/>
<!-- Head -->
<ellipse cx="330" cy="230" rx="40" ry="48" fill="url(#uBody)" stroke="#FFB6C1" stroke-width="2.5" transform="rotate(10 330 230)" filter="url(#uShadow)"/>
<ellipse cx="328" cy="228" rx="30" ry="38" fill="#FFF" opacity="0.6" transform="rotate(10 328 228)"/>
<!-- Muzzle -->
<ellipse cx="365" cy="245" rx="20" ry="18" fill="#FFF5F7" stroke="#FFB6C1" stroke-width="2"/>
<ellipse cx="363" cy="243" rx="14" ry="12" fill="#FFF" opacity="0.7"/>
<!-- Nostril -->
<ellipse cx="370" cy="248" rx="3" ry="4" fill="#FFB6C1"/>
<!-- Mouth -->
<path d="M 360 255 Q 365 258 370 255" stroke="#FFB6C1" stroke-width="1.5" fill="none" stroke-linecap="round"/>
<!-- Horn base glow -->
<circle cx="335" cy="180" r="15" fill="url(#hornGlow)" opacity="0.6"/>
<!-- Horn -->
<path d="M 330 185 L 335 130 L 340 185 Z" fill="url(#horn)" stroke="#FFA500" stroke-width="2" filter="url(#uShadow)"/>
<!-- Horn spiral -->
<line x1="332" y1="180" x2="337" y2="180" stroke="#FFA500" stroke-width="1" opacity="0.6"/>
<line x1="333" y1="170" x2="337" y2="170" stroke="#FFA500" stroke-width="1" opacity="0.6"/>
<line x1="333" y1="160" x2="336.5" y2="160" stroke="#FFA500" stroke-width="1" opacity="0.6"/>
<line x1="333.5" y1="150" x2="336" y2="150" stroke="#FFA500" stroke-width="1" opacity="0.6"/>
<line x1="334" y1="140" x2="335.5" y2="140" stroke="#FFA500" stroke-width="1" opacity="0.6"/>
<!-- Eye -->
<ellipse cx="345" cy="225" rx="5" ry="6" fill="#4A4A4A" transform="rotate(10 345 225)"/>
<circle cx="346" cy="223" r="2" fill="#FFF" opacity="0.9"/>
<!-- Ear -->
<ellipse cx="320" cy="195" rx="10" ry="18" fill="#FFF5F7" stroke="#FFB6C1" stroke-width="1.5" transform="rotate(-25 320 195)"/>
<ellipse cx="322" cy="198" rx="5" ry="10" fill="#FFD4E0" opacity="0.6" transform="rotate(-25 322 198)"/>
<!-- Mane flowing -->
<path d="M 300 200 Q 285 220 283 245 Q 282 270 288 295" stroke="url(#mane)" stroke-width="12" fill="none" stroke-linecap="round" opacity="0.9"/>
<path d="M 305 205 Q 292 225 290 250 Q 289 275 294 300" stroke="url(#mane)" stroke-width="10" fill="none" stroke-linecap="round" opacity="0.8"/>
<path d="M 310 210 Q 298 230 296 255 Q 295 280 300 305" stroke="url(#mane)" stroke-width="8" fill="none" stroke-linecap="round" opacity="0.7"/>
<!-- Tail flowing -->
<path d="M 170 340 Q 145 350 135 370 Q 130 390 138 410" stroke="url(#mane)" stroke-width="14" fill="none" stroke-linecap="round" opacity="0.9"/>
<path d="M 175 345 Q 152 355 142 375 Q 137 395 145 415" stroke="url(#mane)" stroke-width="12" fill="none" stroke-linecap="round" opacity="0.8"/>
<path d="M 180 350 Q 158 360 148 380 Q 143 400 151 420" stroke="url(#mane)" stroke-width="10" fill="none" stroke-linecap="round" opacity="0.7"/>
<!-- Sparkles around unicorn -->
<polygon points="335,115 338,123 346,123 340,128 342,136 335,131 328,136 330,128 324,123 332,123" fill="#FFD700" opacity="0.9">
<animate attributeName="opacity" values="0.9;1;0.9" dur="2s" repeatCount="indefinite"/>
</polygon>
<circle cx="350" cy="210" r="3" fill="#FF69B4" opacity="0.7">
<animate attributeName="opacity" values="0.7;1;0.7" dur="1.8s" repeatCount="indefinite"/>
</circle>
<circle cx="310" cy="195" r="2.5" fill="#87CEEB" opacity="0.6">
<animate attributeName="opacity" values="0.6;1;0.6" dur="2.2s" repeatCount="indefinite"/>
</circle>
<circle cx="360" cy="200" r="2" fill="#DDA0DD" opacity="0.7">
<animate attributeName="opacity" values="0.7;1;0.7" dur="1.5s" repeatCount="indefinite"/>
</circle>
<circle cx="325" cy="175" r="2" fill="#98FB98" opacity="0.6">
<animate attributeName="opacity" values="0.6;0.9;0.6" dur="2s" repeatCount="indefinite"/>
</circle>
</svg>
